# xmcd
#
# Track frame offsets:
#	150
#	12418
#	26681
#	42292
#	63022
#	82417
#	99173
#	120872
#	138494
#	156593
#	175792
#
# Disc length: 2571 seconds
#
# Revision: 1
# Processed by: cddbd v1.5.2PL0 Copyright (c) Steve Scherf et al.
# Submitted via: audiograbber 1.83.01
#
DISCID=880a090b
DTITLE=Lisa Bigwood - Intrepid
DYEAR=1900
DGENRE=
TTITLE0=Drive
TTITLE1=Words
TTITLE2=These Days
TTITLE3=Sister Tiger
TTITLE4=Expectation Machine
TTITLE5=Cats in the Woodpile
TTITLE6=Cold Mountain River
TTITLE7=Stay
TTITLE8=Iris and Rose
TTITLE9=Mountain Man
TTITLE10=What It Takes
EXTD=
EXTT0=
EXTT1=
EXTT2=
EXTT3=
EXTT4=
EXTT5=
EXTT6=
EXTT7=
EXTT8=
EXTT9=
EXTT10=
PLAYORDER=
